<?xml version="1.0" encoding="UTF-8"?> <svg xmlns="http://www.w3.org/2000/svg" viewBox="0 0 300 86.25"><defs><style>.cls-1{fill:#d3b66b;}.cls-2{fill:#fff;}</style></defs><g id="Layer_2" data-name="Layer 2"><g id="Layer_1-2" data-name="Layer 1"><path class="cls-1" d="M45.9,42.59l-7-7C35,39.1,31.55,41.38,25.86,41.38c-8.54,0-14.43-7.1-14.43-15.64V25.6c0-8.52,6-15.5,14.43-15.5,5,0,8.89,2.13,12.73,5.62l7-8C41,3.14,35.32,0,25.94,0,10.65,0,0,11.62,0,25.76v.14A25.13,25.13,0,0,0,25.53,51.5c9.55,0,15.25-3.43,20.37-8.91"></path><path class="cls-1" d="M77.24,13.92l6.57,16H70.67ZM72.35.86,51.17,50.64H62.25l4.52-11.09H87.66l4.52,11.09h11.37L82.39.86Z"></path><path class="cls-1" d="M149.4,35.92v-.14c0-8.69-5.68-12.3-15.78-14.93-8.6-2.21-10.73-3.26-10.73-6.54v-.15c0-2.42,2.19-4.33,6.4-4.33s8.54,1.85,12.93,4.91l5.69-8.25A28.83,28.83,0,0,0,129.41.16c-10.16,0-17.42,6-17.42,15v.14c0,9.87,6.46,12.67,16.5,15.21,8.31,2.14,10,3.55,10,6.32V37c0,2.91-2.71,4.7-7.19,4.7-5.68,0-10.38-2.34-14.86-6L110,43.41a31.64,31.64,0,0,0,21.12,8c10.75-.05,18.28-5.59,18.28-15.46"></path><rect class="cls-1" x="163.59" y="0.86" width="10.94" height="49.77"></rect><polygon class="cls-1" points="223.85 0.86 223.85 31.51 200.53 0.86 190.44 0.86 190.44 50.64 201.23 50.64 201.23 18.99 225.35 50.64 234.65 50.64 234.65 0.86 223.85 0.86"></polygon><path class="cls-1" d="M288.57,25.88c0,8.54-6.12,15.5-14.92,15.5s-15.07-7.1-15.07-15.64V25.6c0-8.54,6.12-15.5,14.92-15.5s15.07,7.1,15.07,15.64ZM300,25.74V25.6C300,11.45,289,0,273.62,0s-26.51,11.6-26.51,25.74v.14c0,14.14,11,25.6,26.37,25.6S300,39.9,300,25.74"></path><polygon class="cls-2" points="79.29 71.1 79.29 77.01 73.23 77.01 73.23 71.1 69.95 71.1 69.95 86.02 73.23 86.02 73.23 80.03 79.29 80.03 79.29 86.02 82.57 86.02 82.57 71.1 79.29 71.1"></polygon><polygon class="cls-2" points="94.68 71.1 94.68 86.02 106.06 86.02 106.06 83.11 97.95 83.11 97.95 79.97 104.99 79.97 104.99 77.05 97.95 77.05 97.95 74.02 105.95 74.02 105.95 71.1 94.68 71.1"></polygon><polygon class="cls-2" points="117.51 71.1 117.51 86.02 128.22 86.02 128.22 83.05 120.79 83.05 120.79 71.1 117.51 71.1"></polygon><path class="cls-2" d="M149.3,81.61v0c0-2.61-1.7-3.7-4.74-4.48-2.59-.65-3.22-1-3.22-2v0c0-.72.66-1.29,1.93-1.29a6.88,6.88,0,0,1,3.88,1.48l1.7-2.49a8.68,8.68,0,0,0-5.54-1.89c-3.06,0-5.24,1.79-5.24,4.5v0c0,3,1.93,3.8,5,4.56,2.51.63,3,1.06,3,1.91v0c0,.88-.8,1.41-2.16,1.41a6.8,6.8,0,0,1-4.45-1.8l-1.93,2.32a9.5,9.5,0,0,0,6.34,2.38c3.22,0,5.48-1.69,5.48-4.64"></path><rect class="cls-2" x="161.56" y="71.1" width="3.28" height="14.94"></rect><polygon class="cls-2" points="187.13 71.1 187.13 80.28 180.15 71.1 177.11 71.1 177.11 86.02 180.36 86.02 180.36 76.54 187.58 86.02 190.37 86.02 190.37 71.1 187.13 71.1"></polygon><polygon class="cls-2" points="211.82 71.1 205.77 77.63 205.77 71.1 202.48 71.1 202.48 86.02 205.77 86.02 205.77 81.47 207.49 79.66 212.13 86.02 216.07 86.02 209.73 77.42 215.8 71.1 211.82 71.1"></polygon><rect class="cls-2" x="226.74" y="71.1" width="3.28" height="14.94"></rect></g></g></svg> 